# xmcd
#
# Track frame offsets: 
#        150
#        13355
#        24067
#        37350
#        47687
#        59580
#        72650
#        86330
#        98300
#        109017
#        118700
#        130780
#        144945
#        154855
#        166512
#        177227
#        215240
#        244687
#
# Disc length: 3567 seconds
#
# Revision: 0
# Processed by: cddbd v1.5.2PL0 Copyright (c) Steve Scherf et al.
# Submitted via: ExactAudioCopy v0.99pb4
#
DISCID=f30ded12
DTITLE=B.B. King - Wails
DYEAR=1900
DGENRE=
TTITLE0=1. Sweet Thing
TTITLE1=2. I've Got Papers On You Baby
TTITLE2=3. Tomorrow Is Another Day
TTITLE3=4. Come By Here
TTITLE4=5. The Fool
TTITLE5=6. I Love You So
TTITLE6=7. The Woman I Love
TTITLE7=8. We Can't Make It
TTITLE8=9. Treat Me Right
TTITLE9=10. Time To Say Goodbye
TTITLE10=11. You've Been An Angel
TTITLE11=12. You Shouldn't Have Left
TTITLE12=13. Shake Yours
TTITLE13=14. My Silent Prayer
TTITLE14=15.Recession Blues
TTITLE15=16. We Can't Make It
TTITLE16=17. Worry Worry
TTITLE17=18. Everyday I Have The Blues
EXTD=
EXTT0=
EXTT1=
EXTT2=
EXTT3=
EXTT4=
EXTT5=
EXTT6=
EXTT7=
EXTT8=
EXTT9=
EXTT10=
EXTT11=
EXTT12=
EXTT13=
EXTT14=
EXTT15=
EXTT16=
EXTT17=
PLAYORDER=
